<svg width="48" height="48" viewBox="0 0 48 48" fill="none" xmlns="http://www.w3.org/2000/svg">
<path d="M47.411 44.5832L33.7619 30.9341C36.4057 27.6683 37.9976 23.5185 37.9976 18.9988C37.9976 8.5235 29.4741 0 18.9988 0C8.52341 0 0 8.52341 0 18.9988C0 29.4741 8.5235 37.9976 18.9988 37.9976C23.5185 37.9976 27.6683 36.4057 30.9341 33.7619L44.5832 47.411C44.9732 47.801 45.4851 47.997 45.9972 47.997C46.5092 47.997 47.0211 47.801 47.4111 47.411C48.193 46.6291 48.193 45.3651 47.411 44.5832ZM18.9988 33.9978C10.7273 33.9978 3.99978 27.2703 3.99978 18.9988C3.99978 10.7272 10.7273 3.99969 18.9988 3.99969C27.2704 3.99969 33.9979 10.7272 33.9979 18.9988C33.9979 27.2703 27.2703 33.9978 18.9988 33.9978Z" fill="white"/>
</svg>
